<svg xmlns="http://www.w3.org/2000/svg" width="48" height="49" viewBox="0 0 48 49">
    <defs>
        <filter id="gj8mq6ebya">
            <feColorMatrix in="SourceGraphic" values="0 0 0 0 0.878431 0 0 0 0 0.125490 0 0 0 0 0.125490 0 0 0 1.000000 0"/>
        </filter>
    </defs>
    <g fill="none" fill-rule="evenodd">
        <g>
            <g>
                <g filter="url(#gj8mq6ebya)" transform="translate(-632 -921) translate(0 888) translate(632 33.5)">
                    <g fill="#E02020" transform="translate(0 6)">
                        <ellipse cx="24.019" cy="33.913" rx="2.595" ry="2.609"/>
                        <path d="M33.394 24.896c.99 1.04.955 2.692-.08 3.688-1.036.996-2.679.96-3.67-.081-1.461-1.535-3.47-2.416-5.625-2.416-2.157 0-4.167.882-5.628 2.419-.99 1.041-2.633 1.078-3.669.083-1.036-.996-1.073-2.647-.082-3.689 2.43-2.555 5.79-4.03 9.379-4.03 3.586 0 6.944 1.473 9.375 4.026z" opacity=".3"/>
                        <path d="M40.257 17.038c1.03 1.002 1.057 2.653.06 3.688-.996 1.036-2.64 1.063-3.67.061-3.366-3.274-7.848-5.135-12.628-5.135-4.825 0-9.346 1.896-12.722 5.226-1.023 1.01-2.666.994-3.67-.035-1.003-1.028-.988-2.68.035-3.689 4.337-4.277 10.158-6.72 16.357-6.72 6.14 0 11.912 2.397 16.238 6.604z" opacity=".3"/>
                        <path fill-opacity=".3" d="M47.188 9.263c1.041.99 1.087 2.64.103 3.688-.985 1.047-2.627 1.093-3.668.104-5.266-5.003-12.21-7.838-19.604-7.838-7.41 0-14.37 2.847-19.638 7.87-1.04.992-2.683.948-3.669-.097-.986-1.046-.943-2.697.097-3.688C7.033 3.368 15.266 0 24.02 0c8.733 0 16.949 3.353 23.169 9.263z"/>
                    </g>
                </g>
            </g>
        </g>
    </g>
</svg>
