<svg xmlns="http://www.w3.org/2000/svg" width="46" height="46" viewBox="0 0 46 46">
    <g fill="#FFF" fill-rule="evenodd" transform="translate(0 6)">
        <ellipse cx="23.018" cy="32.5" rx="2.487" ry="2.5"/>
        <path fill-opacity=".3" d="M32.002 23.858c.95.998.915 2.58-.077 3.535-.992.955-2.566.92-3.516-.078-1.4-1.47-3.326-2.315-5.39-2.315-2.067 0-3.994.846-5.394 2.318-.95.998-2.524 1.033-3.516.08-.993-.955-1.028-2.537-.08-3.535C16.36 21.413 19.58 20 23.02 20c3.436 0 6.654 1.412 8.983 3.858z"/>
        <path fill-opacity=".3" d="M38.58 16.328c.986.96 1.012 2.543.057 3.535s-2.529 1.018-3.516.058C31.894 16.783 27.599 15 23.018 15c-4.624 0-8.956 1.817-12.191 5.008-.98.967-2.555.952-3.517-.033-.962-.986-.947-2.569.033-3.536C11.5 12.34 17.078 10 23.018 10c5.885 0 11.416 2.296 15.561 6.328z"/>
        <path fill-opacity=".3" d="M45.221 8.877c.999.948 1.043 2.53.1 3.534-.944 1.003-2.518 1.048-3.516.1C36.759 7.716 30.104 5 23.018 5c-7.101 0-13.77 2.728-18.82 7.542-.996.95-2.57.908-3.516-.093-.945-1.002-.903-2.585.094-3.535C6.74 3.228 14.63 0 23.018 0c8.37 0 16.243 3.213 22.203 8.877z"/>
    </g>
</svg>
