<svg xmlns="http://www.w3.org/2000/svg" width="48" height="48" viewBox="0 0 48 48">
    <g fill="none" fill-rule="evenodd">
        <g>
            <g>
                <path fill="#FFF" d="M24.019 39.857c1.433 0 2.595 1.151 2.595 2.572 0 1.42-1.162 2.571-2.595 2.571-1.433 0-2.595-1.151-2.595-2.571 0-1.42 1.162-2.572 2.595-2.572zm9.375-6.317c.99 1.026.955 2.654-.08 3.636-1.036.981-2.679.946-3.67-.08-1.394-1.444-3.287-2.3-5.33-2.376l4.314-4.313c1.794.675 3.422 1.741 4.766 3.133zm-11.117-3.853l-7.522 7.523-.033-.03c-1.036-.981-1.073-2.609-.082-3.636 2.032-2.106 4.715-3.468 7.637-3.857zm1.742-10.401c2.576 0 5.088.416 7.455 1.205l-4.222 4.222c-1.056-.188-2.136-.284-3.233-.284-4.825 0-9.346 1.869-12.722 5.15-1.023.996-2.666.98-3.67-.033-1.003-1.014-.988-2.642.035-3.637C12 21.693 17.82 19.286 24.02 19.286zm16.238 6.508c1.03.988 1.057 2.616.06 3.636-.996 1.021-2.64 1.048-3.67.06-1.238-1.187-2.628-2.186-4.128-2.975l3.779-3.777c1.417.87 2.745 1.893 3.959 3.056zM24.019 9c5.421 0 10.644 1.274 15.313 3.634l-3.872 3.871c-3.55-1.54-7.43-2.362-11.441-2.362-7.41 0-14.37 2.806-19.638 7.758-1.04.977-2.683.934-3.669-.097-.986-1.03-.943-2.658.097-3.635C7.033 12.32 15.266 9 24.02 9zm23.169 9.13c1.041.976 1.087 2.604.103 3.636-.985 1.032-2.627 1.078-3.668.102-1.126-1.054-2.328-2.01-3.594-2.862l3.706-3.706c1.207.863 2.36 1.808 3.453 2.83z" transform="translate(-632 -40) translate(632 40)"/>
                <path stroke="#FFF" stroke-linecap="round" stroke-width="5" d="M42.5 6.5L6.5 42.5" transform="translate(-632 -40) translate(632 40)"/>
            </g>
        </g>
    </g>
</svg>
