<svg xmlns="http://www.w3.org/2000/svg" width="48" height="48" viewBox="0 0 48 48">
    <g fill="none" fill-rule="evenodd">
        <g fill="#FFF">
            <g>
                <path fill-opacity=".3" d="M24.019 36.857c1.433 0 2.595 1.151 2.595 2.572 0 1.42-1.162 2.571-2.595 2.571-1.433 0-2.595-1.151-2.595-2.571 0-1.42 1.162-2.572 2.595-2.572zm0-10.286c3.586 0 6.944 1.453 9.375 3.969.99 1.026.955 2.654-.08 3.636-1.036.981-2.679.946-3.67-.08-1.461-1.513-3.47-2.382-5.625-2.382-2.157 0-4.167.87-5.628 2.385-.99 1.026-2.633 1.063-3.669.081-1.036-.981-1.073-2.609-.082-3.636 2.43-2.519 5.79-3.973 9.379-3.973zm0-10.285c6.14 0 11.912 2.362 16.238 6.508 1.03.988 1.057 2.616.06 3.636-.996 1.021-2.64 1.048-3.67.06-3.366-3.227-7.848-5.061-12.628-5.061-4.825 0-9.346 1.869-12.722 5.15-1.023.996-2.666.98-3.67-.033-1.003-1.014-.988-2.642.035-3.637C12 18.693 17.82 16.286 24.02 16.286zm0-10.286c8.733 0 16.949 3.305 23.169 9.13 1.041.976 1.087 2.604.103 3.636-.985 1.032-2.627 1.078-3.668.102-5.266-4.931-12.21-7.725-19.604-7.725-7.41 0-14.37 2.806-19.638 7.758-1.04.977-2.683.934-3.669-.097-.986-1.03-.943-2.658.097-3.635C7.033 9.32 15.266 6 24.02 6z" transform="translate(-634 -40) translate(634 40)"/>
                <path d="M19 20.937h3.522c.033-1.106.748-1.836 1.788-1.836 1.02 0 1.734.639 1.734 1.562 0 1.004-.379 1.483-1.853 2.395-1.506.912-2.048 1.938-1.842 3.888l.032.456h3.382v-.536c0-1.072.411-1.585 1.896-2.486C29.252 23.411 30 22.248 30 20.56c0-2.736-2.146-4.56-5.44-4.56-3.468 0-5.527 1.95-5.56 4.937zM24.17 33c1.397 0 2.21-.764 2.21-2.075 0-1.323-.813-2.087-2.21-2.087-1.399 0-2.222.764-2.222 2.087 0 1.311.823 2.075 2.221 2.075z" transform="translate(-634 -40) translate(634 40)"/>
            </g>
        </g>
    </g>
</svg>
